<?xml version="1.0" encoding="utf-8"?>
<!-- Generator: Adobe Illustrator 26.0.2, SVG Export Plug-In . SVG Version: 6.00 Build 0)  -->
<svg version="1.1" id="Layer_1" xmlns="http://www.w3.org/2000/svg" xmlns:xlink="http://www.w3.org/1999/xlink" x="0px" y="0px"
	 viewBox="0 0 500 114.6" style="enable-background:new 0 0 500 114.6;" xml:space="preserve">
<style type="text/css">
	.st0{fill-rule:evenodd;clip-rule:evenodd;fill:#FFFFFF;}
	.st1{fill-rule:evenodd;clip-rule:evenodd;fill:#F9F9F9;}
</style>
<g>
	<path class="st0" d="M26.2,67.9c-0.3-0.5-1.7-3-2.1-3.6l-1.9,3.3L16.4,78C12.3,84.6,9,90.5,9,96c0,8.5,7,10.9,11.3,10.9l0.4,0
		c3,0,5.9-1.1,7.9-2.8c2.2-1.9,3.3-4.7,3.3-8.1c0-5.6-3.4-11.6-7.6-18.5c0,0-1.7,2.8-1.9,3.2c3.5,5.8,6.3,10.9,6.3,15.3
		c0,2.5-0.7,4.3-2.2,5.6c-1.4,1.2-3.6,2-5.8,2l-0.4,0c-1.7,0-8-0.6-8-7.6c0-5.1,3.7-11.1,8-18.1l4-6.8c0.6,1,1.2,2,1.9,3
		C31,82.1,35.3,89,35.3,96c0,4.4-1.5,8.1-4.5,10.6c-2.6,2.3-6.4,3.6-10.2,3.6h-0.1c-7.1,0-14.7-4.5-14.7-14.3c0-7,4.2-13.9,9.1-21.8
		c1.9-3.1,7.6-12.9,7.6-12.9c-0.7-1.3-1.3-2.6-1.9-3.9C13.4,72.7,2.4,83.6,2.4,96c0,11.6,9,17.6,18.1,17.6c9,0,18.1-6,18.1-17.6
		C38.5,86.6,32.3,78.1,26.2,67.9z"/>
	<path class="st1" d="M20.2,1.1l0.3,0c9,0,18,6,18,17.6c0,9.3-6.1,17.7-12.2,27.8l-5.1,9.5c-0.4,0.7-0.6,1.2-0.7,1.4L20.4,57
		c-0.8-1.7-4.6-8.4-5.7-10.6C8.6,36.4,2.4,27.9,2.4,18.6C2.4,7.2,11.3,1.2,20.2,1.1z M20.5,8.8c-5.2,0-9.4,4-9.4,8.9
		c0,4.9,4.2,8.9,9.4,8.9c5.2,0,9.4-4,9.4-8.9C29.9,12.8,25.7,8.8,20.5,8.8z"/>
	<path class="st1" d="M218.8,36.9c9.4,0,15.7,4.3,15.7,13.5c0,6-3.9,10.5-9.3,12.2l-0.3,0.1l13.8,15.1l-12.1,0l-12.9-15.1v-6.9h5
		c3.3,0,5.4-2,5.4-5.1c0-3-2-5-5.2-5l-0.3,0h-9.1v32.1h-10V36.9H218.8z M240.3,36.9l0.7,0h11.2l9.3,15.8l9.3-15.8h0.6l4.4,10.6
		L266.5,62v15.8h-10.1V62L240.3,36.9z M97,36.9v8.8H74v7h18.7v8.5H74V69h23v8.8H64.3V36.9H97z M115.8,36.9l10.7,31.3l11.1-31.3h11
		l-15.7,40.9h-12.7l-15.4-40.9H115.8z M188.8,36.9v8.8h-23v7h18.7v8.5h-18.7V69h23v8.8h-32.7V36.9H188.8z"/>
	<path class="st0" d="M357.5,36.9l16.6,40.9H370l-4-9.9h-22.2l-4.3,9.9h-4.1l17.5-40.9H357.5z M409.9,36.9v3.7H395v37.2h-4.1V40.5
		h-15.9v-3.7H409.9z M275.2,36.9l14.7,36.3l9.8-22.3l-5.7-14h4.4l14.4,35.7l15.4-35.7h4.4l-17.5,40.9h-4.4l-9.1-22.1l-9.7,22.1h-4.4
		l-16.6-40.9H275.2z M450.2,36.9v3.7h-27.1v14.1h22.7v3.7h-22.7v15.8h27.1v3.7h-31V36.9H450.2z M479.6,36.9c8.1,0,14.4,4,14.4,12.9
		c0,7.6-5.6,12.3-12.6,12.6l-0.3,0l16.5,15.4l-5.6,0l-16.2-15.4V59l4.2,0c5.4,0,9.8-3.3,9.8-9.1c0-6.3-4.4-9.2-9.6-9.3l-0.3,0h-13.8
		v37.2h-4.1V36.9H479.6z M355.1,41l-10.3,23.6h19.9L355.1,41z"/>
</g>
</svg>
